<?xml version="1.0" encoding="UTF-8" standalone="no"?>
<!-- Created with Inkscape (http://www.inkscape.org/) -->

<svg
   width="1156"
   height="1156"
   viewBox="0 0 305.85833 305.85833"
   version="1.1"
   id="svg1"
   inkscape:version="1.4 (e7c3feb1, 2024-10-09)"
   sodipodi:docname="persevering.svg"
   xmlns:inkscape="http://www.inkscape.org/namespaces/inkscape"
   xmlns:sodipodi="http://sodipodi.sourceforge.net/DTD/sodipodi-0.dtd"
   xmlns="http://www.w3.org/2000/svg"
   xmlns:svg="http://www.w3.org/2000/svg">
  <sodipodi:namedview
     id="namedview1"
     pagecolor="#ffffff"
     bordercolor="#000000"
     borderopacity="0.25"
     inkscape:showpageshadow="2"
     inkscape:pageopacity="0.0"
     inkscape:pagecheckerboard="0"
     inkscape:deskcolor="#d1d1d1"
     inkscape:document-units="px"
     inkscape:zoom="0.22387487"
     inkscape:cx="192.07158"
     inkscape:cy="556.11424"
     inkscape:window-width="1440"
     inkscape:window-height="768"
     inkscape:window-x="0"
     inkscape:window-y="25"
     inkscape:window-maximized="1"
     inkscape:current-layer="g48" />
  <defs
     id="defs1" />
  <g
     inkscape:label="Layer 1"
     inkscape:groupmode="layer"
     id="layer1">
    <path
       id="path34"
       style="display:inline;fill:#c495f3;fill-opacity:0.4;stroke:none;stroke-width:0.228078"
       d="m 215.32167,251.88387 a 65.298809,5.9482158 0 0 1 -65.29882,5.94822 65.298809,5.9482158 0 0 1 -65.298805,-5.94822 65.298809,5.9482158 0 0 1 65.298805,-5.94821 65.298809,5.9482158 0 0 1 65.29882,5.94821 z"
       inkscape:label="body-shadow" />
    <g
       id="g36"
       inkscape:label="krabble"
       transform="matrix(0.25864145,0,0,0.25898516,-111.95091,-102.9778)"
       style="display:inline">
      <g
         id="g30"
         inkscape:label="right-paw"
         style="display:inline">
        <path
           id="path10"
           style="display:inline;fill:#ea4f2d;fill-opacity:1"
           inkscape:label="right-paw"
           d="m 1242,1217.0508 c -26.0356,36.0639 -60.7554,58.7748 -97.5918,71.082 7.6394,10.0134 14.2654,24.1262 20.8145,34.7324 7.973,12.9124 10.7257,35.9721 23.9843,44.7813 3.3488,2.225 11.2791,6.1205 20.1778,0.832 19.7668,-11.7473 22.7581,-56.2418 23.1992,-67.3125 0.1682,-4.2215 0.222,-8.5113 0.1855,-12.8867 6.96,8.73 13.5003,17.5404 19.2403,27.1504 1.2632,2.1204 2.5022,4.3049 3.7265,6.5195 4.9576,8.9672 9.8043,19.491 18.5391,24.8965 13.9274,8.619 22.8296,-3.396 26.6289,-10.5332 7.8581,-14.7623 9.4086,-38.8003 -0.5469,-63.0117 -8.0365,-16.8396 -18.5114,-32.871 -29.9336,-47.793 -9.4915,-1.5941 -19.0111,-4.3555 -28.4238,-8.457 z" />
        <path
           id="path10-8"
           style="display:inline;fill:#c7351b;fill-opacity:1"
           inkscape:label="right-paw-shadow-1"
           d="m 1242,1217.0508 c -8.7781,12.1592 -18.5618,22.7655 -29.0625,32.0019 2.881,6.1704 14.1041,28.0516 19.8301,39.4746 -7e-4,-0.084 0,-0.1655 0,-0.25 5e-4,8e-4 0,0 0,0 0.045,0.056 0.088,0.1135 0.1328,0.1699 1.4724,1.8488 2.9212,3.7048 4.3497,5.5703 0.8372,1.0901 1.6535,2.1943 2.4746,3.293 0.5557,0.7465 1.1143,1.4925 1.6621,2.2441 1.0662,1.4573 2.111,2.9331 3.1445,4.4141 0.2316,0.3329 0.4615,0.6677 0.6914,1.002 1.148,1.6643 2.2791,3.3447 3.3809,5.0488 -3.2654,-9.8745 -3.2612,-23.2198 2.8007,-34.5762 5.9367,-11.1217 17.7061,-20.3184 37.879,-22.4941 -5.7618,-9.4883 -12.1397,-18.6621 -18.8614,-27.4434 -9.4915,-1.5941 -19.0111,-4.3555 -28.4238,-8.457 z" />
        <path
           id="path10-4"
           style="display:inline;fill:#d53c20;fill-opacity:1"
           inkscape:label="right-paw-shadow-2"
           d="m 1212.9492,1249.0449 c -20.6467,18.1635 -44.1201,30.9288 -68.541,39.0879 6.8909,9.0323 12.9556,21.3771 18.8848,31.4981 0.041,-0.017 0.081,-0.028 0.1211,-0.045 4.1979,-7.7083 23.8379,-30.5035 63.2656,-43.0937 -5.295,-10.4454 -10.8384,-21.3803 -13.2266,-26.3887 -0.1215,-0.1542 -0.3128,-0.6078 -0.5039,-1.0586 z" />
      </g>
      <g
         id="g31"
         inkscape:label="left-paw"
         style="display:inline">
        <path
           id="path31"
           style="display:inline;fill:#ea4f2d;fill-opacity:1"
           inkscape:label="left-paw"
           d="m 774.06836,1220.9805 c -7.17402,1.1371 -14.09038,1.9792 -20.77344,2.5586 -7.34817,10.3163 -15.3462,21.9969 -18.13672,26.1113 -19.84512,29.23 -22.42663,75.5381 -8.16797,92.8906 6.40209,7.7912 16.831,10.2792 27.17383,-0.7012 8.77504,-9.316 14.7209,-24.9917 20.37696,-33.6699 4.398,-7.36 9.18632,-14.2891 14.36132,-21.1191 -0.17898,22.6494 1.83503,47.8356 12.61133,68.4101 2.80864,5.2975 5.97556,9.6904 11.58789,12.3516 11.67358,6.4196 21.9684,-1.2065 25.41016,-4.998 10.8161,-11.9152 21.78624,-57.8548 47.12695,-80.4141 -15.61313,-0.2394 -30.10646,-3.2219 -43.16797,-8.2149 -31.57485,-12.0699 -55.18859,-34.8798 -68.40234,-53.205 z" />
        <path
           id="path31-71"
           style="display:inline;fill:#c7351b;fill-opacity:1"
           inkscape:label="left-paw-shadow-1"
           d="m 774.06836,1220.9805 c -7.17402,1.1371 -14.09038,1.9792 -20.77344,2.5586 -7.34817,10.3163 -15.3462,21.9969 -18.13672,26.1113 -0.28017,0.4127 -0.54506,0.8404 -0.81836,1.2598 7.26081,1.6512 18.25223,5.0526 27.72657,13.6191 10.20015,9.2314 15.1254,23.1111 15.80859,38.2539 0.005,-0.01 0.0109,-0.014 0.0156,-0.022 0.0575,-0.09 0.11626,-0.178 0.17383,-0.2676 0.98847,-1.5376 1.99903,-3.0573 3.02344,-4.5664 0.32241,-0.4749 0.6506,-0.9473 0.97656,-1.4199 0.79565,-1.1534 1.60314,-2.3001 2.41993,-3.4414 0.33236,-0.4644 0.66218,-0.9317 0.99804,-1.3945 1.12252,-1.5466 2.25845,-3.0882 3.41992,-4.6211 2.85194,-14.7282 7.12633,-21.4032 16.70899,-33.3965 -0.94538,-0.7134 -1.78122,-1.5147 -2.53906,-2.3789 -12.28001,-9.8727 -22.08162,-20.6949 -29.00391,-30.2949 z" />
        <path
           id="path31-3"
           style="display:inline;fill:#d53c20;fill-opacity:1"
           inkscape:label="left-paw-shadow-2"
           d="m 803.70703,1252.166 c -0.003,0 -0.005,0.011 -0.008,0.016 0.63405,0.4962 1.27099,0.9889 1.91211,1.4727 -6.52848,8.1708 -10.5903,13.8777 -13.41992,21.3398 30.01575,5.0493 50.88512,22.212 66.63671,46.9317 6.88757,-14.4222 15.37956,-29.3491 26.81055,-39.5254 -15.61313,-0.2394 -30.10646,-3.2219 -43.16797,-8.2149 -13.28642,-5.0789 -25.1423,-12.0704 -35.42773,-19.8183 -1.15724,-0.6518 -2.27672,-1.3722 -3.33594,-2.2012 z" />
      </g>
      <path
         id="path2"
         style="display:inline;fill:#fcfbf7;fill-opacity:1"
         inkscape:label="cloud-body"
         d="m 801.30664,799.36133 c -20.73025,0.57032 -38.38646,4.55225 -53.22044,10.34561 -14.83397,5.79335 -26.84571,13.39813 -36.287,21.21416 -9.4413,7.81602 -16.31215,15.8433 -20.86437,22.48164 -4.55222,6.63834 -6.78581,11.88774 -6.95255,14.14804 -43.78597,21.85975 -70.43303,58.38398 -84.12284,100.23421 -13.68981,41.85021 -14.42237,89.02641 -6.37934,132.19021 8.0282,43.0842 24.84683,77.8257 53.8226,99.551 28.97578,21.7254 70.10872,30.4346 126.76552,21.4543 6.60688,9.1626 15.81394,19.4464 27.31614,28.9484 11.5022,9.5019 25.29954,18.2219 41.08696,24.2569 15.78743,6.0349 33.56494,9.3848 53.0275,8.1464 19.46256,-1.2384 40.61016,-7.065 63.13776,-19.383 16.19366,13.2923 37.362,23.4952 61.16522,29.7163 23.8033,6.2212 50.2414,8.4604 76.9747,5.8255 26.7333,-2.635 53.7618,-10.1442 78.7456,-23.4201 24.9838,-13.2759 47.923,-32.3184 66.4778,-58.0201 38.1079,16.6051 77.9847,11.6072 110.5393,-6.4574 32.5546,-18.0646 57.7869,-49.1958 66.6056,-84.8571 9.4671,-38.2832 11.3216,-79.7346 -3.9864,-118.7289 -15.3081,-38.99439 -47.7786,-75.53175 -106.9617,-103.98702 6.9009,-27.69472 6.8976,-51.36834 2.0047,-70.96222 -4.8929,-19.59389 -14.6754,-35.10804 -27.3332,-46.48381 -12.6579,-11.3759 -28.1913,-18.6133 -44.5859,-21.65367 -16.3946,-3.04037 -33.6505,-1.88371 -49.7531,3.52854 -19.4419,-40.075 -50.0242,-71.13959 -85.7554,-91.31585 -35.7312,-20.17625 -76.6113,-29.46418 -116.64891,-25.98586 -42.66719,3.70676 -82.08178,16.62847 -114.22457,40.81435 -32.14278,24.18589 -57.01375,59.63596 -70.59368,108.39947 z"
         sodipodi:nodetypes="cssscssscssscssscssscssscsssc" />
      <path
         id="path2-9"
         style="display:inline;fill:#f6eaca;fill-opacity:1"
         inkscape:label="cloud-body-shadow"
         d="m 596.32031,1109.1973 c 0.31435,1.5651 0.56245,3.1556 0.89453,4.7129 0.18501,1.3389 1.27463,6.4389 1.70313,8.8007 20.64878,72.4167 72.2319,114.5826 175.15039,98.2696 13.21375,18.3252 36.82749,41.1351 68.40234,53.205 31.57485,12.0699 71.11082,13.3997 116.16602,-11.2363 32.38733,26.5846 84.67398,40.8109 138.14058,35.541 53.4666,-5.27 108.1131,-30.0361 145.2227,-81.4394 76.2157,33.2103 159.507,-19.9919 177.1445,-91.3145 1.1873,-4.8012 2.2546,-9.6531 3.1836,-14.5429 -18.2461,4.9702 -44.5111,7.5163 -56.8379,5.3457 -15.73,23.96 -38.8307,52.1411 -68.4707,58.2011 -23.47,4.8 -53.4638,-5.8653 -75.4687,-20.7402 -15.78,33.22 -46.3113,57.8606 -80.6113,70.1406 -40.25,14.52 -84.6699,12.0896 -123.0899,-6.7304 -13.72,-6.62 -27.48465,-15.4599 -38.22265,-26.3399 -20.146,23.61 -49.20075,36.8988 -79.96875,39.2988 -31.644,2.76 -63.07912,-7.23 -87.32812,-27.75 -10.518,-8.99 -18.82528,-19.1486 -25.23828,-31.3886 -36.894,12.4 -79.77794,10.5196 -114.83594,-6.9004 -20.662,-10.26 -36.06489,-25.3299 -47.33789,-45.3399 -5.66523,-1.9704 -17.4888,-5.9736 -28.59766,-9.7929 z" />
      <g
         id="g26"
         inkscape:label="right-claw"
         style="display:inline">
        <path
           fill="#f84734"
           d="m 1470.45,872.171 c -3.17,10.9375 -8.82,20.16 -15.73,28.50263 -8.5682,7.16821 -14.5087,13.71973 -18.9457,21.08891 -4.437,7.36918 -7.3704,15.55601 -9.9243,25.99484 -2.1825,8.76737 -4.69,17.21512 -7.53,21.94262 l 2.46,1.538 c 24.8633,-8.68762 39.7628,-21.99621 50.3992,-33.30285 10.6365,-11.30663 17.0098,-20.61113 24.8208,-21.29115 12.1331,-1.0563 20.8997,25.40952 18.85,59.287 -2.3577,38.9691 -18.3381,78.9024 -47.51,105.829 -14.538,13.4191 -30.8355,20.3275 -48.16,26.65 -18.3068,6.6809 -36.26,6.3 -55.72,5.09 -13.5961,24.2681 -31.8794,42.5369 -50.4507,52.3117 -18.5714,9.7749 -37.4308,11.0558 -52.1793,1.3483 -10.012,-6.595 -15.5459,-16.5242 -17.8036,-26.2413 -2.2577,-9.7171 -1.2392,-19.2221 1.8536,-24.9687 2.4677,-3.4166 9.9279,-8.2046 19.3886,-16.6669 9.4607,-8.4624 20.9218,-20.5991 31.3914,-38.7131 -35.0041,-77.08864 1.4531,-140.11327 50.2815,-175.9033 48.8283,-35.79003 110.0279,-44.34546 124.5085,-12.4957 z"
           id="path16"
           inkscape:label="right-claw"
           style="display:inline;fill:#ea4f2d;fill-opacity:1"
           sodipodi:nodetypes="ccscccssssscscscscsc" />
        <path
           style="display:inline;fill:#e33021;fill-opacity:0.705882"
           d="m 1456.8379,897.90625 c -18.5626,12.99107 -28.017,29.63184 -34.8848,48.08398 -7.2397,19.45136 -11.7325,40.86441 -21.3828,61.98047 0.9105,1.629 2.2615,1.5845 3.9902,1.459 32.4031,-11.85136 56.2288,-58.07796 76.1836,-81.95118 -2.8724,3.13731 -5.9204,6.58344 -9.5644,10.45703 -10.6364,11.30664 -25.5371,24.61511 -50.4004,33.30273 l -2.459,-1.53906 c 2.84,-4.7275 5.3468,-13.17404 7.5293,-21.94141 2.5539,-10.43883 5.4868,-18.62691 9.9238,-25.99609 4.437,-7.36918 10.3791,-13.91968 18.9473,-21.08789 0.7428,-0.89675 1.4051,-1.84946 2.1172,-2.76758 z"
           id="path37"
           inkscape:label="right-claw-shadow-2" />
        <path
           style="display:inline;fill:#d53c20;fill-opacity:1"
           d="m 1330.5312,897.38281 c -40.4766,37.03955 -66.0593,94.50248 -34.871,163.18749 15.7469,30.1443 39.722,46.8125 56.1289,51.4102 -8.2677,15.5083 -20.8283,30.5886 -35.7754,40.6601 -14.947,10.0715 -33.7125,15.8494 -45.0801,14.1895 -19.4719,-9.9925 -27.5776,-31.6096 -23.2246,-53.8086 -1.2294,1.0881 -2.1987,2.0563 -2.8281,2.9277 -3.0928,5.7466 -4.1113,15.2517 -1.8536,24.9688 2.2577,9.7171 7.7908,19.6472 17.8028,26.2422 14.7485,9.7075 33.6083,8.4272 52.1797,-1.3477 18.5713,-9.7748 36.855,-28.0444 50.4511,-52.3125 19.46,1.21 37.412,1.5911 55.7188,-5.0898 17.3245,-6.3225 33.6221,-13.2313 48.1601,-26.6504 23.7754,-21.9454 38.7816,-52.5302 44.7989,-84.19144 -1.2355,4.22444 -2.6764,8.40694 -4.5528,12.45114 -15.1966,32.7551 -44.3461,62.1574 -77.705,75.67 -29.7911,12.0674 -63.52,14.2201 -93.4102,1.3105 -31.8735,-13.7662 -42.7608,-45.6019 -44.4922,-76.6562 -1.7313,-31.0545 5.6933,-61.3277 10.4414,-71.97075 6.2116,-13.9235 16.162,-28.12447 28.1113,-40.99024 z"
           id="path16-0"
           inkscape:label="right-claw-shadow-1" />
      </g>
      <g
         id="g27-4-8"
         style="display:inline"
         inkscape:label="left-claw"
         transform="translate(1.3298655e-4)">
        <path
           id="path12-3-6-0"
           style="display:inline;fill:#ea4f2d;fill-opacity:1"
           inkscape:label="left-claw"
           d="m 633.19727,878.43164 c -7.61719,7.49672 4.14397,34.64128 13.35659,54.97292 9.21262,20.33163 20.66543,39.7999 26.7977,49.79271 -49.20464,-11.22033 -68.92761,-31.0068 -80.35805,-46.60472 -11.43045,-15.59792 -14.56836,-27.00729 -30.60289,-21.47341 -27.30511,9.42361 -38.19474,62.87357 -21.09678,110.01976 17.09795,47.1462 63.85808,91.8861 156.87622,95.5818 11.5943,13.2205 25.04745,23.837 39.49703,31.0025 14.44958,7.1655 29.8956,10.88 45.47563,10.2963 16.82086,-5.9456 26.22759,-15.6948 30.8605,-27.3355 4.63292,-11.6406 4.49202,-25.1727 2.21762,-38.684 -6.357,-20.83 -26.07067,-25.2805 -42.01367,-38.2305 29.98812,-62.38994 10.79476,-113.61541 -23.92518,-146.04789 -34.71995,-32.43248 -104.48076,-45.69459 -117.08472,-33.28997 z"
           sodipodi:nodetypes="sscssscscsccss" />
        <path
           id="path12-3-0-0-1"
           style="display:inline;fill:#d53c20;fill-opacity:1"
           inkscape:label="left-claw-shadow"
           d="m 636.71484,876.19922 c -1.42644,0.62205 -2.62807,1.35699 -3.51757,2.23242 -7.61719,7.49672 4.1448,34.64102 13.35742,54.97266 9.21262,20.33163 20.6646,39.80016 26.79687,49.79297 -49.20464,-11.22033 -68.92698,-31.00755 -80.35742,-46.60547 -11.43045,-15.59792 -14.56898,-27.00654 -30.60352,-21.47266 -27.30511,9.42361 -38.19561,62.87332 -21.09765,110.01956 17.09795,47.1462 63.85881,91.8863 156.87695,95.582 11.5943,13.2205 25.04847,23.8365 39.49805,31.002 14.44958,7.1655 29.89458,10.8805 45.47461,10.2968 16.82086,-5.9456 26.22842,-15.6952 30.86133,-27.3359 4.63292,-11.6406 4.49119,-25.1723 2.21679,-38.6836 -6.357,-20.83 -26.07067,-25.2805 -42.01367,-38.2305 14.47649,-30.1181 17.46839,-57.6232 12.80859,-81.67966 1.24241,7.7207 1.68883,15.62377 1.25,23.62696 -1.63197,29.7739 -15.8961,54.0932 -38.0371,73.5332 -24.502,21.51 -56.8758,33.7609 -89.5918,31.4609 -128.10764,-9.013 -143.41205,-164.78425 -98.70508,-186.22067 17.221,-8.258 34.97852,27.35125 45.97852,37.65625 9.923,9.295 21.1507,15.48202 33.88672,20.04102 3.99198,9.772 9.22479,19.55885 16.84179,27.002 11.673,11.4 24.4955,12.971 39.9375,12.621 -1.472,-4.65 -2.77487,-10.6414 -5.42187,-14.7714 -3.527,-5.50911 -9.29957,-9.10441 -12.47657,-14.98441 -8.646,-16.001 -13.6094,-36.52117 -17.9414,-54.20117 -7.84,-6.845 -15.36264,-13.48397 -20.55664,-22.66797 -4.78,-8.451 -9.31578,-21.41274 -6.30078,-30.92774 0.24445,-0.77399 0.55342,-1.38289 0.83593,-2.05859 z m 138.42774,184.93168 c 14.481,12.59 31.28847,15.6489 38.23047,34.8789 2.614,14.79 4.43289,32.2805 -4.78711,45.3105 -5.751,8.13 -14.8996,12.2393 -24.5586,13.5293 -15.93017,1.6776 -30.90414,-1.7205 -44.76757,-8.0605 -13.86343,-6.34 -26.61634,-15.622 -38.10743,-25.709 35.602,-12.6 53.19224,-29.0592 73.99024,-59.9492 z" />
      </g>
      <g
         id="g48"
         style="display:inline"
         inkscape:label="face">
        <g
           id="g2"
           transform="matrix(0.85251626,0,0,0.85138484,513.07965,273.34109)"
           inkscape:label="persevering-face"
           style="display:inline">
          <path
             fill="#3e2400"
             d="m 582.61027,854.85263 c 25.41338,0.66095 46.44155,16.4857 59.52354,33.38409 13.082,16.89839 18.21781,34.87042 11.84646,39.82591 -9.35969,7.31145 -13.02576,-2.2077 -20.94012,-14.64763 -7.91436,-12.43993 -20.07702,-27.80066 -46.42988,-32.17237 -24.81404,-0.23628 -39.99667,10.41169 -50.87317,21.22412 -10.8765,10.81243 -17.44686,21.78932 -25.03633,22.21088 -14.19209,-2.06496 -7.72269,-19.81308 8.04872,-36.89902 15.77142,-17.08595 40.84484,-33.50972 63.86078,-32.92598 z"
             id="path19"
             style="display:block;fill:#221e01;fill-opacity:1;stroke-width:0.5"
             sodipodi:nodetypes="cscscscsc"
             inkscape:label="mouth" />
          <g
             id="g50"
             inkscape:label="eyes">
            <path
               fill="#3e2400"
               d="m 729.65527,790.23113 c -2.81276,5.08223 -5.52566,4.92559 -13.49642,7.01002 -7.97076,2.08444 -21.19938,6.40995 -45.04358,20.45648 16.14713,14.88265 31.01656,29.9179 39.71012,41.86105 8.69356,11.94315 11.21124,20.7942 2.65488,23.30845 -4.56265,1.34072 -21.07394,-10.22784 -37.21018,-24.19755 -16.13623,-13.9697 -31.89741,-30.34056 -34.95982,-38.60445 -1.68926,-9.47347 22.39504,-26.14528 45.90263,-35.84206 23.5076,-9.69678 46.43848,-12.41855 42.44237,6.00806 z"
               id="path20"
               style="display:block;fill:#221e01;fill-opacity:1;stroke-width:0.5"
               sodipodi:nodetypes="cscscscsc"
               inkscape:label="right-eye" />
            <path
               fill="#3e2400"
               d="m 528.22827,818.01963 c -7.71291,6.59678 -21.19029,18.79616 -35.47321,29.71391 -14.28292,10.91776 -29.37138,20.55388 -40.30641,22.02414 -5.3406,0.71807 -10.11646,-1.11811 -5.55153,-8.99703 4.56492,-7.87892 18.47063,-21.80059 50.49315,-45.25352 -13.72916,-14.083 -29.40584,-18.90877 -40.77389,-22.57672 -11.36805,-3.66795 -18.42747,-6.17807 -14.92211,-15.62978 4.45822,-12.02421 26.17664,-5.99101 46.73806,5.12152 20.56141,11.11253 39.9658,27.30439 39.79594,35.59748 z"
               id="path21"
               style="display:block;fill:#221e01;fill-opacity:1;stroke-width:0.5"
               sodipodi:nodetypes="cscscscsc"
               inkscape:label="left-eye" />
          </g>
          <g
             id="g49"
             inkscape:label="eyebrows">
            <path
               fill="#3e2400"
               d="m 665.72027,693.14713 c 7.40696,7.32773 17.36856,15.27281 30.40387,22.18423 13.03531,6.91142 29.14433,12.78918 48.84613,15.98227 25.16395,4.72513 30.4008,10.61695 27.09431,15.23502 -3.30648,4.61806 -15.15631,7.96237 -24.16572,7.59246 -18.73777,-0.76933 -41.60333,-8.35461 -61.45524,-18.65455 -19.85191,-10.29993 -36.69017,-23.31452 -43.3733,-34.94245 -4.5463,-11.18639 -2.23288,-16.52216 2.89166,-17.31807 5.12453,-0.79591 13.06017,2.94804 19.75829,9.92109 z"
               id="path23"
               style="display:block;fill:#221e01;fill-opacity:1;stroke-width:0.5"
               inkscape:label="right-eyebrow"
               sodipodi:nodetypes="cscscscsc" />
            <path
               fill="#3e2400"
               d="m 529.00501,695.30955 c -6.9562,11.71606 -26.22306,23.74376 -47.95341,32.99899 -21.73035,9.25523 -45.9242,15.73798 -62.73437,16.36413 -13.10961,0.48831 -21.36476,-4.06473 -22.71772,-9.05351 -1.35295,-4.98878 4.1963,-10.41331 18.69548,-11.66797 22.24583,-1.92501 42.12157,-11.31851 58.90525,-21.42936 16.78368,-10.11085 30.4753,-20.93905 40.35291,-25.73344 8.67698,-4.21164 14.02971,-2.09051 16.46831,2.33811 2.43861,4.42862 1.96308,11.16473 -1.01645,16.18305 z"
               id="path22"
               style="display:block;fill:#221e01;fill-opacity:1;stroke-width:0.5"
               sodipodi:nodetypes="cscscscsc"
               inkscape:label="left-eyebrow" />
          </g>
        </g>
      </g>
    </g>
  </g>
</svg>
