<?xml version="1.0" encoding="UTF-8" standalone="no"?>
<svg
   width="24"
   height="24"
   viewBox="0 0 24 24"
   fill="none"
   stroke="currentColor"
   stroke-width="2"
   stroke-linecap="round"
   stroke-linejoin="round"
   class="lucide lucide-puzzle-icon lucide-puzzle"
   version="1.1"
   id="svg1"
   sodipodi:docname="plain-puzzle.svg"
   inkscape:version="1.4 (e7c3feb1, 2024-10-09)"
   xmlns:inkscape="http://www.inkscape.org/namespaces/inkscape"
   xmlns:sodipodi="http://sodipodi.sourceforge.net/DTD/sodipodi-0.dtd"
   xmlns="http://www.w3.org/2000/svg"
   xmlns:svg="http://www.w3.org/2000/svg">
  <defs
     id="defs1" />
  <sodipodi:namedview
     id="namedview1"
     pagecolor="#ffffff"
     bordercolor="#000000"
     borderopacity="0.25"
     inkscape:showpageshadow="2"
     inkscape:pageopacity="0.0"
     inkscape:pagecheckerboard="0"
     inkscape:deskcolor="#d1d1d1"
     inkscape:zoom="1.7404677"
     inkscape:cx="57.455821"
     inkscape:cy="19.822258"
     inkscape:window-width="1440"
     inkscape:window-height="768"
     inkscape:window-x="0"
     inkscape:window-y="25"
     inkscape:window-maximized="1"
     inkscape:current-layer="svg1" />
  <path
     d="M15.39 4.39a1 1 0 0 0 1.68-.474 2.5 2.5 0 1 1 3.014 3.015 1 1 0 0 0-.474 1.68l1.683 1.682a2.414 2.414 0 0 1 0 3.414L19.61 15.39a1 1 0 0 1-1.68-.474 2.5 2.5 0 1 0-3.014 3.015 1 1 0 0 1 .474 1.68l-1.683 1.682a2.414 2.414 0 0 1-3.414 0L8.61 19.61a1 1 0 0 0-1.68.474 2.5 2.5 0 1 1-3.014-3.015 1 1 0 0 0 .474-1.68l-1.683-1.682a2.414 2.414 0 0 1 0-3.414L4.39 8.61a1 1 0 0 1 1.68.474 2.5 2.5 0 1 0 3.014-3.015 1 1 0 0 1-.474-1.68l1.683-1.682a2.414 2.414 0 0 1 3.414 0z"
     id="path1"
     style="stroke:#000000;stroke-opacity:1;fill:#000000;fill-opacity:1" />
</svg>
